<svg width="40.000000" height="40.000004" viewBox="0 0 50 50" fill="none" xmlns="http://www.w3.org/2000/svg" xmlns:xlink="http://www.w3.org/1999/xlink">
	<defs>
		<clipPath id="clip68_172">
			<rect id="palette" width="50.000000" height="50.000000" fill="white" fill-opacity="0"/>
		</clipPath>
	</defs>
	<g clip-path="url(#clip68_172)">
		<path id="path" d="M19.45 5.41C11.92 7.91 6.72 13.19 4.91 20.27C1.52 33.05 11.77 44.86 26.76 45.62C34.53 46.04 35.28 45.41 35.81 38.75L36.18 33.68L41.69 33.33C48.92 32.84 49.6 32.15 49.15 25C48.85 18.95 46.51 14.09 42.06 10C36.49 4.86 27.07 2.91 19.45 5.41ZM34.68 8.95C41.38 11.73 45.83 18.81 45.45 26.04L45.23 30.2L40.25 30.41C33.85 30.69 32.87 31.59 32.19 37.98L31.66 42.7L27.14 42.5C18.93 42.08 11.77 37.77 8.98 31.52C7.47 28.26 7.7 21.11 9.35 17.7C11.09 14.09 14.93 10.55 18.85 8.95C22.84 7.22 30.68 7.22 34.68 8.95Z" fill="#363636" fill-opacity="1.000000" fill-rule="nonzero"/>
		<path id="path" d="M4.91 20.27C1.52 33.05 11.77 44.86 26.76 45.62C34.53 46.04 35.28 45.41 35.81 38.75L36.18 33.68L41.69 33.33C48.92 32.84 49.6 32.15 49.15 25C48.85 18.95 46.51 14.09 42.06 10C36.49 4.86 27.07 2.91 19.45 5.41C11.92 7.91 6.72 13.19 4.91 20.27ZM45.45 26.04L45.23 30.2L40.25 30.41C33.85 30.69 32.87 31.59 32.19 37.98L31.66 42.7L27.14 42.5C18.93 42.08 11.77 37.77 8.98 31.52C7.47 28.26 7.7 21.11 9.35 17.7C11.09 14.09 14.93 10.55 18.85 8.95C22.84 7.22 30.68 7.22 34.68 8.95C41.38 11.73 45.83 18.81 45.45 26.04Z" stroke="#000000" stroke-opacity="0" stroke-width="0.133333"/>
		<path id="path" d="M22.54 13.47C21.79 15.27 22.84 16.8 24.65 16.52C27.14 16.25 27.14 12.91 24.65 12.63C23.67 12.5 22.77 12.84 22.54 13.47Z" fill="#363636" fill-opacity="1.000000" fill-rule="nonzero"/>
		<path id="path" d="M24.65 16.52C27.14 16.25 27.14 12.91 24.65 12.63C23.67 12.5 22.77 12.84 22.54 13.47C21.79 15.27 22.84 16.8 24.65 16.52Z" stroke="#000000" stroke-opacity="0" stroke-width="0.133333"/>
		<path id="path" d="M31.59 15.55C30.83 17.36 31.89 18.88 33.7 18.61C36.18 18.33 36.18 15 33.7 14.72C32.72 14.58 31.81 14.93 31.59 15.55Z" fill="#363636" fill-opacity="1.000000" fill-rule="nonzero"/>
		<path id="path" d="M33.7 18.61C36.18 18.33 36.18 15 33.7 14.72C32.72 14.58 31.81 14.93 31.59 15.55C30.83 17.36 31.89 18.88 33.7 18.61Z" stroke="#000000" stroke-opacity="0" stroke-width="0.133333"/>
		<path id="path" d="M15.76 17.63C15.01 19.44 16.06 20.97 17.87 20.69C20.36 20.41 20.36 17.08 17.87 16.8C16.89 16.66 15.99 17.01 15.76 17.63Z" fill="#363636" fill-opacity="1.000000" fill-rule="nonzero"/>
		<path id="path" d="M17.87 20.69C20.36 20.41 20.36 17.08 17.87 16.8C16.89 16.66 15.99 17.01 15.76 17.63C15.01 19.44 16.06 20.97 17.87 20.69Z" stroke="#000000" stroke-opacity="0" stroke-width="0.133333"/>
		<path id="path" d="M36.11 21.8C35.36 23.61 36.41 25.13 38.22 24.86C40.71 24.58 40.71 21.25 38.22 20.97C37.24 20.83 36.34 21.18 36.11 21.8Z" fill="#363636" fill-opacity="1.000000" fill-rule="nonzero"/>
		<path id="path" d="M38.22 24.86C40.71 24.58 40.71 21.25 38.22 20.97C37.24 20.83 36.34 21.18 36.11 21.8C35.36 23.61 36.41 25.13 38.22 24.86Z" stroke="#000000" stroke-opacity="0" stroke-width="0.133333"/>
		<path id="path" d="M13.5 25.97C12.75 27.77 13.8 29.3 15.61 29.02C18.1 28.75 18.1 25.41 15.61 25.13C14.63 25 13.73 25.34 13.5 25.97Z" fill="#363636" fill-opacity="1.000000" fill-rule="nonzero"/>
		<path id="path" d="M15.61 29.02C18.1 28.75 18.1 25.41 15.61 25.13C14.63 25 13.73 25.34 13.5 25.97C12.75 27.77 13.8 29.3 15.61 29.02Z" stroke="#000000" stroke-opacity="0" stroke-width="0.133333"/>
		<path id="path" d="M20.28 32.22C19.53 34.02 20.58 35.55 22.39 35.27C23.67 35.13 24.13 34.58 24.13 33.33C24.13 32.08 23.67 31.52 22.39 31.38C21.41 31.25 20.51 31.59 20.28 32.22Z" fill="#363636" fill-opacity="1.000000" fill-rule="nonzero"/>
		<path id="path" d="M22.39 35.27C23.67 35.13 24.13 34.58 24.13 33.33C24.13 32.08 23.67 31.52 22.39 31.38C21.41 31.25 20.51 31.59 20.28 32.22C19.53 34.02 20.58 35.55 22.39 35.27Z" stroke="#000000" stroke-opacity="0" stroke-width="0.133333"/>
	</g>
</svg>
