<svg width="40.000000" height="40.000000" viewBox="0 0 50 50" fill="none" xmlns="http://www.w3.org/2000/svg" xmlns:xlink="http://www.w3.org/1999/xlink">
	<defs>
		<clipPath id="clip121_18">
			<rect id="trash-can" width="50.000000" height="50.000000" fill="white" fill-opacity="0"/>
		</clipPath>
	</defs>
	<rect id="trash-can" width="50.000000" height="50.000000" fill-opacity="1.000000"/>
	<g clip-path="url(#clip121_18)">
		<path id="path" d="M19.45 2.77C18.52 3 17.52 3.57 16.81 4.28C15.78 5.32 15.26 6.46 15.15 7.95L15.08 8.83L12.25 8.88L9.42 8.93L8.86 9.2C7.78 9.74 7.06 10.71 6.82 11.97C6.66 12.78 6.76 14.17 7.03 14.86C7.26 15.5 7.93 16.29 8.53 16.65L8.93 16.88L9.79 29.46C10.26 36.37 10.71 42.37 10.79 42.77C11.2 44.89 12.88 46.66 15 47.2C15.52 47.34 16.76 47.36 25.01 47.36C33.11 47.36 34.51 47.34 35 47.21C36.88 46.73 38.49 45.2 39.07 43.35C39.28 42.64 39.3 42.46 40.4 26.58L41.06 16.88L41.46 16.65C42.06 16.29 42.73 15.5 42.96 14.86C43.23 14.17 43.33 12.78 43.17 11.97C42.93 10.71 42.21 9.74 41.13 9.2L40.57 8.93L37.74 8.88L34.91 8.83L34.84 7.95C34.81 7.47 34.7 6.85 34.61 6.59C33.97 4.69 32.4 3.22 30.55 2.78C29.71 2.58 20.27 2.57 19.45 2.77ZM30.28 5.98C30.75 6.22 31.28 6.75 31.5 7.21C31.6 7.41 31.69 7.86 31.71 8.22L31.75 8.88L25 8.88L18.26 8.88L18.26 8.35C18.26 7.22 18.9 6.28 19.96 5.88C20.18 5.8 21.56 5.78 25.09 5.79C29.55 5.81 29.96 5.82 30.28 5.98ZM39.98 12.22C40.18 12.51 40.18 13.55 39.98 13.84L39.83 14.06L25 14.06L10.16 14.06L10.01 13.84C9.92 13.71 9.86 13.41 9.86 13.03C9.86 12.65 9.92 12.36 10.01 12.22L10.16 12.01L25 12.01L39.83 12.01L39.98 12.22ZM37.89 17.25C37.89 17.3 37.51 22.87 37.05 29.63C36.53 37.2 36.16 42.12 36.08 42.43C35.9 43.06 35.39 43.66 34.74 43.98L34.23 44.23L25 44.23L15.76 44.23L15.25 43.98C14.6 43.66 14.09 43.06 13.91 42.43C13.83 42.12 13.46 37.2 12.94 29.63C12.48 22.87 12.1 17.3 12.1 17.25C12.1 17.21 17.91 17.18 25 17.18C32.08 17.18 37.89 17.21 37.89 17.25Z" fill="#363636" fill-opacity="1.000000" fill-rule="nonzero"/>
		<path id="path" d="M16.81 4.28C15.78 5.32 15.26 6.46 15.15 7.95L15.08 8.83L12.25 8.88L9.42 8.93L8.86 9.2C7.78 9.74 7.06 10.71 6.82 11.97C6.66 12.78 6.76 14.17 7.03 14.86C7.26 15.5 7.93 16.29 8.53 16.65L8.93 16.88L9.79 29.46C10.26 36.37 10.71 42.37 10.79 42.77C11.2 44.89 12.88 46.66 15 47.2C15.52 47.34 16.76 47.36 25.01 47.36C33.11 47.36 34.51 47.34 35 47.21C36.88 46.73 38.49 45.2 39.07 43.35C39.28 42.64 39.3 42.46 40.4 26.58L41.06 16.88L41.46 16.65C42.06 16.29 42.73 15.5 42.96 14.86C43.23 14.17 43.33 12.78 43.17 11.97C42.93 10.71 42.21 9.74 41.13 9.2L40.57 8.93L37.74 8.88L34.91 8.83L34.84 7.95C34.81 7.47 34.7 6.85 34.61 6.59C33.97 4.69 32.4 3.22 30.55 2.78C29.71 2.58 20.27 2.57 19.45 2.77C18.52 3 17.52 3.57 16.81 4.28ZM31.5 7.21C31.6 7.41 31.69 7.86 31.71 8.22L31.75 8.88L25 8.88L18.26 8.88L18.26 8.35C18.26 7.22 18.9 6.28 19.96 5.88C20.18 5.8 21.56 5.78 25.09 5.79C29.55 5.81 29.96 5.82 30.28 5.98C30.75 6.22 31.28 6.75 31.5 7.21ZM39.98 13.84L39.83 14.06L25 14.06L10.16 14.06L10.01 13.84C9.92 13.71 9.86 13.41 9.86 13.03C9.86 12.65 9.92 12.36 10.01 12.22L10.16 12.01L25 12.01L39.83 12.01L39.98 12.22C40.18 12.51 40.18 13.55 39.98 13.84ZM37.05 29.63C36.53 37.2 36.16 42.12 36.08 42.43C35.9 43.06 35.39 43.66 34.74 43.98L34.23 44.23L25 44.23L15.76 44.23L15.25 43.98C14.6 43.66 14.09 43.06 13.91 42.43C13.83 42.12 13.46 37.2 12.94 29.63C12.48 22.87 12.1 17.3 12.1 17.25C12.1 17.21 17.91 17.18 25 17.18C32.08 17.18 37.89 17.21 37.89 17.25C37.89 17.3 37.51 22.87 37.05 29.63Z" stroke="#000000" stroke-opacity="0" stroke-width="0.133333"/>
		<path id="path" d="M16.89 21.6C16.7 21.71 16.45 22.02 16.33 22.26L16.12 22.7L16.66 30.76C17.24 39.63 17.2 39.36 17.9 39.82C18.67 40.33 19.66 40.07 20.1 39.25L20.33 38.81L19.79 30.68C19.19 21.88 19.22 22.08 18.62 21.66C18.16 21.32 17.33 21.3 16.89 21.6Z" fill="#363636" fill-opacity="1.000000" fill-rule="nonzero"/>
		<path id="path" d="M16.33 22.26L16.12 22.7L16.66 30.76C17.24 39.63 17.2 39.36 17.9 39.82C18.67 40.33 19.66 40.07 20.1 39.25L20.33 38.81L19.79 30.68C19.19 21.88 19.22 22.08 18.62 21.66C18.16 21.32 17.33 21.3 16.89 21.6C16.7 21.71 16.45 22.02 16.33 22.26Z" stroke="#000000" stroke-opacity="0" stroke-width="0.133333"/>
		<path id="path" d="M24.21 21.6C24.04 21.72 23.79 21.95 23.69 22.09C23.48 22.37 23.48 22.43 23.45 30.62C23.43 38.68 23.43 38.87 23.63 39.24C24.18 40.35 25.81 40.35 26.36 39.24C26.56 38.87 26.56 38.68 26.54 30.62C26.51 22.43 26.51 22.37 26.3 22.09C25.96 21.63 25.5 21.38 25 21.38C24.68 21.38 24.44 21.45 24.21 21.6Z" fill="#363636" fill-opacity="1.000000" fill-rule="nonzero"/>
		<path id="path" d="M23.69 22.09C23.48 22.37 23.48 22.43 23.45 30.62C23.43 38.68 23.43 38.87 23.63 39.24C24.18 40.35 25.81 40.35 26.36 39.24C26.56 38.87 26.56 38.68 26.54 30.62C26.51 22.43 26.51 22.37 26.3 22.09C25.96 21.63 25.5 21.38 25 21.38C24.68 21.38 24.44 21.45 24.21 21.6C24.04 21.72 23.79 21.95 23.69 22.09Z" stroke="#000000" stroke-opacity="0" stroke-width="0.133333"/>
		<path id="path" d="M31.56 21.55C31.08 21.78 30.85 22.17 30.75 22.92C30.7 23.29 30.43 27.02 30.16 31.22L29.66 38.85L29.89 39.26C30.34 40.07 31.33 40.33 32.09 39.82C32.79 39.36 32.75 39.63 33.33 30.76L33.87 22.7L33.66 22.26C33.27 21.46 32.36 21.15 31.56 21.55Z" fill="#363636" fill-opacity="1.000000" fill-rule="nonzero"/>
		<path id="path" d="M30.75 22.92C30.7 23.29 30.43 27.02 30.16 31.22L29.66 38.85L29.89 39.26C30.34 40.07 31.33 40.33 32.09 39.82C32.79 39.36 32.75 39.63 33.33 30.76L33.87 22.7L33.66 22.26C33.27 21.46 32.36 21.15 31.56 21.55C31.08 21.78 30.85 22.17 30.75 22.92Z" stroke="#000000" stroke-opacity="0" stroke-width="0.133333"/>
	</g>
</svg>
